<svg id="svg" version="1.1" xmlns="http://www.w3.org/2000/svg" xmlns:xlink="http://www.w3.org/1999/xlink" width="400" height="282.79569892473114" viewBox="0, 0, 400,282.79569892473114"><g id="svgg"><path id="path0" d="M190.821 64.449 C 184.750 70.549,143.548 119.784,143.548 120.938 C 143.548 121.686,161.966 137.097,162.860 137.097 C 162.960 137.097,163.188 136.865,163.365 136.581 C 164.168 135.294,192.613 100.218,196.735 95.430 L 197.546 94.489 198.736 95.699 C 199.391 96.364,207.690 105.286,217.179 115.524 C 226.667 125.763,234.555 134.140,234.706 134.140 C 235.168 134.140,249.759 119.827,249.675 119.456 C 249.632 119.266,243.611 111.469,236.296 102.130 L 222.994 85.149 210.390 71.472 C 203.458 63.950,197.709 57.796,197.614 57.796 C 197.520 57.796,194.463 60.790,190.821 64.449 M189.583 149.052 C 185.259 153.698,181.720 157.606,181.720 157.736 C 181.720 158.043,194.630 170.799,196.341 172.182 L 197.655 173.244 201.986 168.796 C 207.051 163.594,213.038 157.059,213.038 156.732 C 213.038 156.396,198.031 140.597,197.715 140.601 C 197.567 140.602,193.908 144.405,189.583 149.052 M263.421 152.236 C 259.514 155.980,247.789 167.448,237.366 177.721 C 226.942 187.994,216.045 198.691,213.149 201.493 C 208.492 205.997,207.921 206.642,208.209 207.068 C 209.194 208.526,223.803 224.462,224.155 224.462 C 224.631 224.462,246.365 202.700,259.137 189.436 C 263.792 184.601,267.736 180.645,267.900 180.645 C 268.064 180.645,273.872 186.721,280.806 194.147 C 293.950 208.223,302.942 217.673,306.762 221.424 L 309.005 223.627 314.942 219.273 C 318.208 216.879,322.528 213.710,324.544 212.231 C 326.559 210.753,328.212 209.474,328.217 209.389 C 328.251 208.796,310.481 188.475,302.141 179.570 C 298.026 175.177,286.908 163.039,277.332 152.487 C 273.810 148.606,270.838 145.430,270.726 145.430 C 270.615 145.430,267.328 148.493,263.421 152.236 M99.454 175.996 C 85.043 192.488,72.858 206.441,72.375 207.002 L 71.498 208.024 80.682 215.726 L 89.867 223.428 90.463 222.803 C 90.791 222.459,98.780 213.649,108.215 203.226 C 117.651 192.802,125.454 184.274,125.556 184.274 C 125.658 184.274,135.445 193.286,147.306 204.301 C 159.167 215.316,169.024 224.364,169.212 224.408 C 169.541 224.485,187.903 207.907,187.903 207.531 C 187.903 207.345,128.796 148.836,126.739 146.986 L 125.656 146.012 99.454 175.996 " stroke="none" fill="#043c5c" fill-rule="evenodd"></path><path id="path1" d="" stroke="none" fill="#043c64" fill-rule="evenodd"></path><path id="path2" d="" stroke="none" fill="#083c5c" fill-rule="evenodd"></path><path id="path3" d="" stroke="none" fill="#083c5c" fill-rule="evenodd"></path><path id="path4" d="" stroke="none" fill="#083c5c" fill-rule="evenodd"></path></g></svg>